<svg xmlns="http://www.w3.org/2000/svg" width="900" height="10" viewBox="0 0 900 10"><defs><clipPath id="axmpa"><path fill="#fff" d="M894.734.281a4.64 4.64 0 1 1 0 9.281 4.64 4.64 0 0 1 0-9.28z"/></clipPath><clipPath id="axmpb"><path fill="#fff" d="M597.734.281a4.64 4.64 0 1 1 0 9.281 4.64 4.64 0 0 1 0-9.28z"/></clipPath><clipPath id="axmpc"><path fill="#fff" d="M301.734.281a4.64 4.64 0 1 1 0 9.281 4.64 4.64 0 0 1 0-9.28z"/></clipPath><clipPath id="axmpd"><path fill="#fff" d="M4.734.281a4.64 4.64 0 1 1 0 9.281 4.64 4.64 0 0 1 0-9.28z"/></clipPath></defs><g><g><g><path fill="#656466" d="M894.734.281a4.64 4.64 0 1 1 0 9.281 4.64 4.64 0 0 1 0-9.28z"/><path fill="none" stroke="#656466" stroke-miterlimit="20" stroke-width="4" d="M894.734.281a4.64 4.64 0 1 1 0 9.281 4.64 4.64 0 0 1 0-9.28z" clip-path="url(&quot;#axmpa&quot;)"/></g><g><path fill="#656466" d="M602 3.696v.978h293.436v-.978z"/></g><g><path fill="#656466" d="M597.734.281a4.64 4.64 0 1 1 0 9.281 4.64 4.64 0 0 1 0-9.28z"/><path fill="none" stroke="#656466" stroke-miterlimit="20" stroke-width="4" d="M597.734.281a4.64 4.64 0 1 1 0 9.281 4.64 4.64 0 0 1 0-9.28z" clip-path="url(&quot;#axmpb&quot;)"/></g><g><path fill="#656466" d="M306 3.696v.978h292.436v-.978z"/></g><g><path fill="#656466" d="M301.734.281a4.64 4.64 0 1 1 0 9.281 4.64 4.64 0 0 1 0-9.28z"/><path fill="none" stroke="#656466" stroke-miterlimit="20" stroke-width="4" d="M301.734.281a4.64 4.64 0 1 1 0 9.281 4.64 4.64 0 0 1 0-9.28z" clip-path="url(&quot;#axmpc&quot;)"/></g><g><path fill="#656466" d="M4.734.281a4.64 4.64 0 1 1 0 9.281 4.64 4.64 0 0 1 0-9.28z"/><path fill="none" stroke="#656466" stroke-miterlimit="20" stroke-width="4" d="M4.734.281a4.64 4.64 0 1 1 0 9.281 4.64 4.64 0 0 1 0-9.28z" clip-path="url(&quot;#axmpd&quot;)"/></g><g><path fill="#656466" d="M2 3.696v.978h301.436v-.978z"/></g></g></g></svg>